<svg xmlns="http://www.w3.org/2000/svg" width="490.4" height="436" viewBox="0 0 490.4 436">
  <g id="heartFull" transform="translate(0 -27.2)">
    <g id="Group_42" data-name="Group 42">
      <path id="Path_159" data-name="Path 159" d="M222.5,453.7a32.315,32.315,0,0,0,22.9,9.5,32.74,32.74,0,0,0,22.9-9.5L448,274A144.4,144.4,0,0,0,245.3,68.3,144.36,144.36,0,0,0,42.4,273.7ZM59.7,86.8a119.866,119.866,0,0,1,169.6.1l7.4,7.4a12.254,12.254,0,0,0,8.7,3.6h0a12.43,12.43,0,0,0,8.7-3.6l7.2-7.2A119.855,119.855,0,1,1,430.8,256.6L251,436.4a8.3,8.3,0,0,1-11.2,0l-180-180a119.866,119.866,0,0,1-.1-169.6Z"/>
      <path id="Path_160" data-name="Path 160" d="M96.15-49.463c20.971,0,19.884,8.238,52.56-4.045,17.892-6.726,55.069-21.214,88.649-18.341,36.087,3.087,68.491,24.061,82.536,29.04,30.371,10.767,33.626,89.892,33.626,116.161,0,5.908-9.9,36.531-27.512,59.609-16.712,21.9-41.072,36.165-45.853,47.382-20.494,48.08-100.563,73.447-116.161,108.519-20.548,46.2,2,33.626-32.494,33.626-21.352,0-40.905-13.94-57.292-33.626C53.346,263.8,13.084,250.348,2.5,214.365c-9.065-30.815-29.433-22.744-49.769-45.488S-67.095,136.059-84.2,123.39c-29.968-22.2-28.486-86.361-20.336-104.354,6.3-13.907,43.226-50.713,85.624-68.5,32.19-13.5,69.153-9.81,88.835-12.308C80.084-63.06,89.111-49.463,96.15-49.463Z" transform="translate(122 120.2)"/>
    </g>
  </g>
</svg>
