<svg xmlns="http://www.w3.org/2000/svg" width="40" height="40" viewBox="0 0 40 40">
  <g id="None" transform="translate(1053.398 1165.606)">
    <g id="Path_158" data-name="Path 158" transform="translate(-1051 -1170)" fill="#fff">
      <path d="M 17.60205078125 42.3936767578125 C 12.79408073425293 42.3936767578125 8.273880958557129 40.52134704589844 4.874130725860596 37.12159729003906 C 1.474380731582642 33.72184753417969 -0.39794921875 29.20165634155273 -0.39794921875 24.3936767578125 C -0.39794921875 19.58570671081543 1.474380731582642 15.06550693511963 4.874130725860596 11.66575717926025 C 8.273880958557129 8.266006469726562 12.79408073425293 6.3936767578125 17.60205078125 6.3936767578125 C 22.41003036499023 6.3936767578125 26.93022155761719 8.266006469726562 30.32997131347656 11.66575717926025 C 33.72972106933594 15.06550693511963 35.60205078125 19.58570671081543 35.60205078125 24.3936767578125 C 35.60205078125 29.20165634155273 33.72972106933594 33.72184753417969 30.32997131347656 37.12159729003906 C 26.93022155761719 40.52134704589844 22.41003036499023 42.3936767578125 17.60205078125 42.3936767578125 Z" stroke="none"/>
      <path d="M 17.60205078125 8.3936767578125 C 13.32829093933105 8.3936767578125 9.310340881347656 10.05796813964844 6.288341522216797 13.0799674987793 C 3.266340255737305 16.10196685791016 1.60205078125 20.11991691589355 1.60205078125 24.3936767578125 C 1.60205078125 28.66743659973145 3.266340255737305 32.68538665771484 6.288341522216797 35.7073860168457 C 9.310340881347656 38.72938537597656 13.32829093933105 40.3936767578125 17.60205078125 40.3936767578125 C 21.87581062316895 40.3936767578125 25.89376068115234 38.72938537597656 28.9157600402832 35.7073860168457 C 31.9377613067627 32.68538665771484 33.60205078125 28.66743659973145 33.60205078125 24.3936767578125 C 33.60205078125 20.11991691589355 31.9377613067627 16.10196685791016 28.9157600402832 13.0799674987793 C 25.89376068115234 10.05796813964844 21.87581062316895 8.3936767578125 17.60205078125 8.3936767578125 M 17.60205078125 4.3936767578125 C 28.64775085449219 4.3936767578125 37.60205078125 13.34797668457031 37.60205078125 24.3936767578125 C 37.60205078125 35.43937683105469 28.64775085449219 44.3936767578125 17.60205078125 44.3936767578125 C 6.556350708007812 44.3936767578125 -2.39794921875 35.43937683105469 -2.39794921875 24.3936767578125 C -2.39794921875 13.34797668457031 6.556350708007812 4.3936767578125 17.60205078125 4.3936767578125 Z" stroke="none" fill="#707070"/>
    </g>
    <line id="Line_24" data-name="Line 24" y1="25" x2="25" transform="translate(-1046.5 -1157.5)" fill="none" stroke="#707070" stroke-width="4"/>
  </g>
</svg>
